# xmcd
# 
# Track frame offsets:
#     150
#     2957
#     18612
#     39358
#     53623
#     74335
#     103342
#     117893
#     133434
#     167699
#     188034
#     210634
#     224582
# 
# Disc length: 3195
# 
# Revision: 1
# Processed by: cddbd v1.5.2PL0 Copyright (c) Steve Scherf et al.
# Submitted via: fre:ac v1.0.31
# 
DISCID=c20c790d
DTITLE=The Kentucky Headhunters - Live At The Ramblin' Man Fair
DYEAR=2019
DGENRE=Rock/Pop
TTITLE0=Intro
TTITLE1=Big Boss Man
TTITLE2=Ragtop
TTITLE3=Stumblin'
TTITLE4=Shufflin' Back to Memphis
TTITLE5=Have You Ever Loved a Woman?
TTITLE6=Wishin' Well
TTITLE7=Walking With the Wolf
TTITLE8=My Daddy Was a Milkman
TTITLE9=Don't Let Me Down
TTITLE10=Rock Me Baby
TTITLE11=Rock 'n' Roller
TTITLE12=Hi-Heel Sneakers
EXTD=
EXTT0=
EXTT1=
EXTT2=
EXTT3=
EXTT4=
EXTT5=
EXTT6=
EXTT7=
EXTT8=
EXTT9=
EXTT10=
EXTT11=
EXTT12=
PLAYORDER=
